<svg xmlns="http://www.w3.org/2000/svg" width="24" height="24" viewBox="0 0 24 24">
    <g fill="none" fill-rule="evenodd">
        <g fill="#7B53EF">
            <g>
                <g>
                    <path d="M12 1c6.075 0 11 4.925 11 11s-4.925 11-11 11S1 18.075 1 12 5.925 1 12 1zm0 2c-4.97 0-9 4.03-9 9s4.03 9 9 9 9-4.03 9-9-4.03-9-9-9zm0 8c.552 0 1 .448 1 1v4c0 .552-.448 1-1 1s-1-.448-1-1v-4c0-.552.448-1 1-1zm0-3c.552 0 1 .448 1 1s-.448 1-1 1-1-.448-1-1 .448-1 1-1z" transform="translate(-16 -254) translate(0 238) translate(16 16)"/>
                </g>
            </g>
        </g>
    </g>
</svg>
