<svg xmlns="http://www.w3.org/2000/svg" width="24" height="24" viewBox="0 0 24 24">
    <g fill="none" fill-rule="evenodd">
        <g fill="#E53157">
            <g>
                <g>
                    <path d="M13 2c.552 0 1 .448 1 1 0 .513-.386.936-.883.993L13 4H5c-.513 0-.936.386-.993.883L4 5v14c0 .513.386.936.883.993L5 20h8c.552 0 1 .448 1 1 0 .513-.386.936-.883.993L13 22H5c-1.598 0-2.904-1.249-2.995-2.824L2 19V5c0-1.598 1.249-2.904 2.824-2.995L5 2h8zm5.613 5.21l.094.083 4 4c.36.36.388.928.083 1.32l-.083.094-4 4c-.39.39-1.024.39-1.414 0-.36-.36-.388-.928-.083-1.32l.083-.094 1.792-1.793H7.5c-.552 0-1-.448-1-1 0-.513.386-.936.883-.993L7.5 11.5h12.585l-2.792-2.793c-.36-.36-.388-.928-.083-1.32l.083-.094c.36-.36.928-.388 1.32-.083z" transform="translate(-16 -310) translate(0 294) translate(16 16)"/>
                </g>
            </g>
        </g>
    </g>
</svg>
